<?xml version="1.0" encoding="UTF-8" standalone="no"?>
<svg
   xmlns:dc="http://purl.org/dc/elements/1.1/"
   xmlns:cc="http://creativecommons.org/ns#"
   xmlns:rdf="http://www.w3.org/1999/02/22-rdf-syntax-ns#"
   xmlns:svg="http://www.w3.org/2000/svg"
   xmlns="http://www.w3.org/2000/svg"
   viewBox="0 0 1024 522"
   height="522"
   width="1024"
   id="svg778"
   version="1.1">
  <metadata
     id="metadata784">
    <rdf:RDF>
      <cc:Work
         rdf:about="">
        <dc:format>image/svg+xml</dc:format>
        <dc:type
           rdf:resource="http://purl.org/dc/dcmitype/StillImage" />
        <dc:title></dc:title>
      </cc:Work>
    </rdf:RDF>
  </metadata>
  <defs
     id="defs782" />
  <g
     id="g786">
    <g
       transform="translate(-4e-7,-0.159383)"
       id="g1022">
      <path
         id="path1026"
         d="m 910.25,521.77256 c -10.0375,0.14991 -18.25,0.0888 -18.25,-0.13569 0,-0.22454 0.5728,-1.47219 1.2729,-2.77256 0.70009,-1.30037 5.13374,-8.88931 9.85256,-16.86431 4.71881,-7.975 11.4832,-20.125 15.03197,-27 3.54876,-6.875 9.20175,-18.575 12.56218,-26 3.36044,-7.425 8.00362,-18.45 10.31819,-24.5 2.31457,-6.05 5.94434,-16.07309 8.06616,-22.27354 2.12181,-6.20045 5.85321,-18.57545 8.292,-27.5 2.43879,-8.92455 5.58952,-22.07646 7.00163,-29.22646 1.41211,-7.15 3.76455,-21.55 5.22764,-32 2.40397,-17.17008 2.66631,-22.03381 2.72385,-50.5 0.0489,-24.17812 -0.34846,-34.98661 -1.70939,-46.5 -0.97519,-8.25 -2.44758,-19.275 -3.272,-24.5 -0.82441,-5.225 -2.60535,-14.96704 -3.95765,-21.64899 -1.35229,-6.68194 -4.43417,-19.28194 -6.84862,-28 -2.41446,-8.71805 -5.99966,-20.52264 -7.96713,-26.23242 -1.96746,-5.70978 -5.6538,-15.60978 -8.19185,-22 C 937.86438,87.728365 932.1814,75.3 927.77359,66.5 923.36578,57.7 918.17482,47.575 916.23812,44 914.30141,40.425 908.05555,29.318443 902.35842,19.318762 896.66129,9.3190812 892,0.8815812 892,0.56876207 892,0.25594293 900.08542,0 909.96761,0 h 17.9676 l 3.95035,5.25 c 2.17269,2.8875 5.99724,8.175 8.499,11.75 2.50176,3.575 9.26124,13.989095 15.02106,23.142433 5.75983,9.153338 13.92834,23.000019 18.15224,30.770402 4.22391,7.770383 10.60641,20.531289 14.18334,28.357567 3.57692,7.826278 8.72459,20.079598 11.43925,27.229598 2.71465,7.15 6.71055,18.77431 8.87985,25.83181 2.1693,7.05749 5.0459,17.63249 6.3924,23.5 1.3466,5.8675 3.3355,15.84319 4.4197,22.16819 1.0843,6.325 2.569,16.45 3.2995,22.5 0.8255,6.83751 1.3281,22.16304 1.3281,40.5 0,18.3562 -0.5022,33.65532 -1.3294,40.5 -0.7311,6.05 -2.1633,15.725 -3.1826,21.5 -1.0193,5.775 -2.804,14.775 -3.966,20 -1.1619,5.225 -3.019,12.65 -4.1267,16.5 -1.1078,3.85 -3.3993,11.275 -5.0924,16.5 -1.6931,5.225 -5.66,16.025 -8.81527,24 -3.15531,7.975 -8.86781,21.26847 -12.69446,29.54103 -3.82664,8.27257 -9.95185,20.54609 -13.61156,27.27448 -3.65972,6.7284 -10.93171,19.09043 -16.15998,27.47118 -5.22827,8.38076 -13.22197,20.18224 -17.76379,26.22552 L 928.5,521.5 Z M 114.5,359.32707 c -7.15,0.23181 -15.7,0.25357 -19,0.0484 -3.3,-0.20523 -9.825,-0.85123 -14.5,-1.43555 -4.675,-0.58433 -11.425,-1.78309 -15,-2.66391 -3.575,-0.88082 -9.958177,-3.0492 -14.184839,-4.81861 -4.226661,-1.76942 -10.82131,-5.30224 -14.654777,-7.85073 -3.833466,-2.54848 -9.490231,-7.35582 -12.57059,-10.68297 -3.080358,-3.32716 -7.439462,-8.75715 -9.686897,-12.06664 -2.247436,-3.3095 -4.9963326,-8.07467 -6.1086605,-10.58927 C 7.6819086,306.75314 5.9466383,301.81022 4.9380801,298.28348 3.9295219,294.75673 2.5852692,286.48933 1.9508518,279.91146 1.0832528,270.91589 1.080389,265.0455 1.939297,256.22586 2.5673594,249.77664 3.7648902,241.8 4.6004766,238.5 c 0.8355865,-3.3 3.482841,-10.05 5.8827884,-15 2.399947,-4.95 6.861417,-12.01145 9.914378,-15.69211 3.052961,-3.68066 8.259685,-8.94643 11.570498,-11.70172 3.310812,-2.75528 9.059904,-6.80534 12.775759,-9.00012 3.715855,-2.19479 10.1311,-5.11138 14.2561,-6.48133 4.125,-1.36995 11.775,-3.245 17,-4.16678 6.671884,-1.17703 15.156233,-1.67491 28.5,-1.67246 12.56009,0.002 22.23412,0.53691 28.54181,1.57724 5.24799,0.86556 12.67299,2.53296 16.5,3.70534 3.827,1.17237 10.44428,3.93608 14.70505,6.14157 4.37907,2.26672 10.7226,6.76505 14.59189,10.34742 3.76477,3.4856 8.59887,8.88394 10.74245,11.99632 l 3.89741,5.65887 3.47992,-4.35612 c 1.91395,-2.39587 6.33369,-7.09567 9.82165,-10.44401 3.48795,-3.34834 9.82149,-8.19149 14.07452,-10.76256 4.25304,-2.57107 11.37688,-5.96332 15.83077,-7.53832 4.45388,-1.57501 12.3092,-3.65275 17.45625,-4.6172 6.73128,-1.2613 14.27078,-1.74342 26.85828,-1.71749 11.15733,0.023 21.12438,0.62204 27.5,1.65285 5.5,0.88924 12.25,2.33946 15,3.22271 2.75,0.88325 7.58804,2.67879 10.75119,3.99009 3.16316,1.3113 8.33816,4.0228 11.5,6.02556 3.16185,2.00276 9.23631,7.15741 13.49881,11.45478 l 7.75,7.81341 v -15.48202 -15.48201 l 31.75,0.26404 31.75,0.26405 0.54584,13 c 0.30021,7.15 0.63771,12.52125 0.75,11.93611 0.11229,-0.58514 2.28126,-4.18514 4.81993,-8 2.53868,-3.81486 6.47618,-8.69739 8.75,-10.85005 2.27383,-2.15267 6.49974,-4.99954 9.39091,-6.32637 2.89117,-1.32683 8.1794,-2.82633 11.75161,-3.33222 4.13124,-0.58505 9.08419,-0.55257 13.60967,0.0893 3.91311,0.55498 7.62488,1.34075 8.24839,1.74616 0.62351,0.40541 11.01251,0.96211 23.08668,1.23711 l 21.95302,0.5 3.71592,12 c 2.04375,6.6 9.4032,30.675 16.35433,53.5 6.95114,22.825 12.8994,42.175 13.21836,43 0.37584,0.97211 1.03166,0.0923 1.86351,-2.5 0.70597,-2.2 2.39629,-7.6 3.75626,-12 1.35997,-4.4 8.16733,-26 15.12746,-48 6.96012,-22 13.11918,-41.46629 13.68678,-43.25843 l 1.032,-3.25843 55.16966,0.25843 L 712.5,178.5 l 0.28443,10.20018 0.28444,10.20018 4.61603,-4.42294 c 2.53882,-2.43262 7.24097,-5.9866 10.44921,-7.89774 3.20825,-1.91114 8.87803,-4.56845 12.59953,-5.90514 3.7215,-1.33668 11.49136,-3.22609 17.26636,-4.19868 7.93803,-1.33687 15.86793,-1.75437 32.5,-1.71107 15.23972,0.0397 25.0391,0.55299 31.89014,1.67052 5.43958,0.88729 12.86458,2.7952 16.5,4.2398 3.63543,1.44461 8.85986,4.11006 11.60986,5.92324 2.75,1.81318 5.91876,4.10781 7.04169,5.09917 1.12293,0.99136 4.22111,4.482 6.88486,7.75696 2.66374,3.27497 6.58291,9.55205 8.70925,13.94906 2.12635,4.39701 3.52816,8.30646 3.11514,8.68765 -0.41302,0.38119 -14.02594,1.88935 -30.25094,3.35146 -16.225,1.46211 -30.24921,2.87882 -31.16492,3.14825 -1.20592,0.35482 -2.44652,-0.96086 -4.5,-4.77237 -1.55929,-2.89423 -4.38181,-6.29932 -6.27225,-7.56686 -1.89045,-1.26754 -5.90473,-3.02196 -8.92062,-3.89871 -3.67574,-1.06856 -7.81727,-1.4442 -12.56283,-1.13944 -3.89366,0.25005 -8.82001,1.28078 -10.94744,2.29052 -2.12743,1.00974 -4.73857,3.22191 -5.80252,4.91592 -1.39061,2.21413 -1.79651,4.20415 -1.44378,7.07848 0.32484,2.64701 1.3621,4.74799 3.06891,6.21612 1.41801,1.21973 4.87883,2.9009 7.6907,3.73593 2.81187,0.83504 10.117,2.2133 16.23362,3.06281 6.11662,0.84951 17.18447,2.47535 24.59522,3.61299 7.41075,1.13763 17.31075,3.17654 22,4.5309 4.68925,1.35436 11.90091,4.07963 16.02591,6.05617 5.35733,2.56702 9.3608,5.47824 14.01338,10.19017 3.58236,3.62806 7.73005,8.88016 9.21709,11.67133 1.48704,2.79118 3.39352,7.72322 4.23662,10.9601 0.8431,3.23688 1.53291,8.76324 1.53291,12.28079 0,3.51756 -0.71333,9.16052 -1.58518,12.53991 -0.87186,3.37938 -3.23255,9.29434 -5.24599,13.14434 -2.14084,4.0936 -6.20882,9.55405 -9.79767,13.15137 -3.37528,3.38326 -9.45209,7.99815 -13.50401,10.25531 -4.05193,2.25717 -10.89697,5.23258 -15.21119,6.61203 -4.31423,1.37945 -12.18923,3.23307 -17.5,4.11914 -6.54906,1.09269 -16.09115,1.62317 -29.65596,1.64869 -11,0.0207 -24.275,-0.52056 -29.5,-1.2028 -5.225,-0.68224 -12.2,-1.90631 -15.5,-2.72017 -3.3,-0.81386 -8.475,-2.38359 -11.5,-3.4883 -3.025,-1.1047 -7.43038,-3.13301 -9.78974,-4.50735 -2.35935,-1.37434 -5.84685,-3.86597 -7.75,-5.53695 L 713,338.79282 V 346.89641 355 h -34.4916 -34.49161 l -0.25839,-55.5962 -0.2584,-55.5962 -8.81254,20.8462 c -4.84689,11.46541 -15.42189,36.47937 -23.5,55.58658 L 596.5,354.98076 l -30.51923,0.01 -30.51922,0.01 -17.14942,-41.25 C 508.87995,291.0625 497.4136,263.42514 492.83136,252.33365 L 484.5,232.1673 477,229.92348 c -4.125,-1.2341 -9.70923,-2.19562 -12.40939,-2.13671 -3.01701,0.0658 -6.67891,1.01727 -9.5,2.46832 -2.60369,1.33921 -6.14123,4.41169 -8.17319,7.09868 -1.97042,2.60561 -4.5617,7.75445 -5.7584,11.44185 -1.1967,3.68741 -2.60854,9.17938 -3.13741,12.20438 -0.52888,3.025 -1.42327,11.8 -1.98753,19.5 -0.56427,7.7 -1.02778,27.6125 -1.03001,44.25 L 435,355 h -34 -34 v -12.53663 -12.53663 l -7.25,6.31699 c -3.9875,3.47435 -9.97439,7.96989 -13.30421,9.9901 -3.32981,2.0202 -10.1063,5.03068 -15.05886,6.68994 -4.95257,1.65926 -13.47817,3.66269 -18.9458,4.45206 -5.46762,0.78937 -15.11613,1.71466 -21.44113,2.05621 -6.325,0.34155 -17.18829,0.17315 -24.14064,-0.37422 -6.95236,-0.54738 -16.14904,-1.71991 -20.43707,-2.60562 -4.28803,-0.88572 -10.74974,-2.777 -14.35935,-4.20285 -3.60962,-1.42585 -9.03794,-4.14544 -12.06294,-6.04353 -3.025,-1.8981 -7.89436,-5.48292 -10.8208,-7.96627 -2.92645,-2.48335 -7.459,-7.33966 -10.07234,-10.7918 l -4.75153,-6.27663 -5.94748,7.16444 c -3.27111,3.94044 -9.08067,9.52076 -12.91014,12.40071 -3.82946,2.87995 -10.12054,6.77015 -13.98018,8.64488 -3.85964,1.87474 -10.16753,4.3151 -14.01753,5.42301 -3.85,1.10792 -9.925,2.48398 -13.5,3.05791 -3.575,0.57393 -12.35,1.23318 -19.5,1.465 z M 798,321.28696 c 3.575,-0.28325 8.64078,-1.42051 11.25728,-2.52725 2.6165,-1.10675 6.104,-3.5461 7.75,-5.42078 2.33814,-2.663 2.99272,-4.35567 2.99272,-7.73887 0,-2.79625 -0.6989,-5.21885 -1.9728,-6.83835 -1.08504,-1.37941 -3.52062,-3.2425 -5.41239,-4.1402 -1.89177,-0.89771 -8.76651,-2.73688 -15.2772,-4.08704 -6.51068,-1.35017 -17.91261,-3.61889 -25.33761,-5.0416 -7.425,-1.42271 -18,-3.72066 -23.5,-5.10655 -5.5,-1.38589 -13.21556,-4.05911 -17.1457,-5.94048 -4.05784,-1.9425 -9.56747,-5.71079 -12.75,-8.72032 L 713,260.42587 v 21.86666 21.86666 l 6.75,-0.62966 c 3.7125,-0.34631 10.575,-1.03711 15.25,-1.53511 4.675,-0.498 12.84069,-1.20869 18.14598,-1.57931 l 9.64598,-0.67385 1.95967,4.43017 c 1.07783,2.4366 3.44453,6.12133 5.25935,8.18829 1.81481,2.06696 5.13278,4.6933 7.37325,5.8363 2.24048,1.14301 6.33309,2.42194 9.09468,2.84207 2.7616,0.42013 7.94609,0.53212 11.52109,0.24887 z M 282.0399,318.884 c 2.49695,0.0638 7.12124,-0.55635 10.27621,-1.37812 3.15496,-0.82176 6.96201,-2.25042 8.4601,-3.1748 1.49808,-0.92438 5.00724,-3.87108 7.79812,-6.54824 l 5.07434,-4.86755 22.42566,2.05535 c 12.33412,1.13045 24.35291,2.32782 26.70843,2.66082 l 4.28276,0.60545 -0.28276,-11.86845 L 366.5,284.5 l -58.8628,-0.25804 -58.8628,-0.25804 0.66181,3.75804 c 0.36399,2.06692 1.38066,6.00804 2.25925,8.75804 0.8786,2.75 2.89435,6.89969 4.47945,9.22154 1.58511,2.32185 4.7817,5.50327 7.10355,7.06982 2.32185,1.56656 5.57154,3.35413 7.22154,3.97237 1.65,0.61825 3.9,1.32213 5,1.56418 1.1,0.24205 4.04296,0.49229 6.5399,0.55609 z m -176.9714,-5.96295 c 3.61267,0.0434 9.00004,-0.64314 11.97192,-1.52569 2.97188,-0.88256 7.25086,-2.87572 9.50885,-4.42926 2.25799,-1.55354 5.33602,-4.43799 6.84006,-6.40989 1.50405,-1.97191 3.88877,-6.10627 5.29939,-9.18747 l 2.56477,-5.60218 7.12325,0.65262 c 3.91779,0.35894 12.67612,1.3461 19.46295,2.1937 6.78683,0.84759 12.53363,1.34713 12.77067,1.11009 0.23705,-0.23704 -0.0737,-4.88418 -0.69047,-10.32698 -0.62886,-5.5491 -0.83361,-14.06893 -0.46614,-19.39599 0.36043,-5.225 1.03566,-11.075 1.50051,-13 0.46485,-1.925 1.10026,-4.64338 1.41202,-6.04085 l 0.56684,-2.54084 -20.71656,2.74039 c -11.39411,1.50722 -21.42125,2.7631 -22.28255,2.79085 -0.9761,0.0315 -2.42448,-2.02084 -3.84506,-5.44825 -1.46629,-3.53767 -3.87838,-6.90645 -6.7635,-9.44603 -2.46642,-2.17103 -6.64875,-4.66621 -9.29405,-5.54484 -2.80135,-0.93046 -8.21675,-1.605 -12.96925,-1.61544 -4.48778,-0.01 -9.825176,0.52881 -11.860877,1.19706 -2.0357,0.66824 -5.276273,2.21139 -7.201273,3.42922 -1.925,1.21782 -4.791049,3.51124 -6.368998,5.09648 -1.577948,1.58524 -4.157946,5.13225 -5.733328,7.88225 -1.575381,2.75 -3.599054,8.29419 -4.497051,12.32042 -1.219891,5.46947 -1.516105,10.52643 -1.171511,20 0.358347,9.85167 0.949049,13.93854 2.648546,18.3244 1.203035,3.10465 3.497119,7.45293 5.097965,9.66283 1.600846,2.20991 4.848722,5.3405 7.217503,6.95687 2.368781,1.61638 6.331874,3.64508 8.806874,4.50822 2.475,0.86315 7.45582,1.60489 11.0685,1.64831 z M 281.58352,251 h 32.67414 l -0.67775,-5.10915 c -0.37277,-2.81003 -1.37592,-7.16554 -2.22923,-9.67891 -0.85331,-2.51337 -2.6143,-6.25339 -3.91331,-8.31115 -1.29901,-2.05777 -3.95292,-4.95497 -5.89757,-6.43823 -1.94466,-1.48326 -5.22415,-3.29938 -7.28777,-4.03581 -2.06362,-0.73643 -7.57703,-1.34883 -12.25203,-1.3609 -6.16725,-0.0159 -9.6157,0.48483 -12.56538,1.82456 -2.23595,1.01557 -5.77681,3.34915 -7.86856,5.18574 -2.09176,1.83658 -4.80492,4.93328 -6.02925,6.88155 -1.22433,1.94826 -2.93355,5.7923 -3.79828,8.5423 -0.86472,2.75 -1.85503,6.6875 -2.20069,8.75 L 248.90937,251 Z M 678.5,158 H 644 v -23 -23 h 34.5 34.5 v 23 23 z"
         style="fill:#a6d8ee" />
      <path
         id="path1024"
         d="m 910.25,521.98271 c -13.18386,0.0132 -17.23147,-0.27736 -17.1714,-1.23271 0.0432,-0.6875 1.37063,-3.275 2.94977,-5.75 1.57914,-2.475 4.98592,-8.1 7.57061,-12.5 2.58469,-4.4 6.93806,-12.05 9.67416,-17 2.7361,-4.95 8.02008,-15.3 11.74217,-23 3.72209,-7.7 9.12617,-19.625 12.00908,-26.5 2.88291,-6.875 7.68846,-19.475 10.679,-28 2.99054,-8.525 7.42439,-22.72336 9.853,-31.55191 2.4286,-8.82856 5.5436,-21.4963 6.92221,-28.15055 1.3786,-6.65425 3.38369,-18.33089 4.45575,-25.94809 1.07206,-7.6172 2.48674,-19.02445 3.14374,-25.34945 0.65701,-6.325 1.20605,-22.075 1.2201,-35 0.014,-12.925 -0.53075,-29.35 -1.21066,-36.5 -0.67991,-7.15 -2.33397,-20.47827 -3.67568,-29.61839 -1.34171,-9.14011 -3.76223,-22.64011 -5.37893,-30 -1.6167,-7.35988 -4.73152,-19.68161 -6.92181,-27.38161 -2.1903,-7.7 -5.62095,-18.725 -7.62368,-24.5 -2.00272,-5.775 -6.14902,-16.575 -9.21399,-24 C 936.20846,82.575 929.43519,68.216346 924.22172,58.09188 919.00825,47.967414 909.85058,31.134353 903.87134,20.685078 897.89211,10.235803 893,1.3069573 893,0.84319826 c 0,-0.46375904 7.7625,-0.82564824 17.25,-0.8041982 l 17.25,0.03900005 3.09225,4.21099999 C 932.29299,6.60505 938.41488,15.475 944.19644,24 c 5.78157,8.525 14.16216,21.661095 18.62354,29.191323 4.46138,7.530228 11.96646,21.366397 16.67795,30.747042 4.7115,9.380646 10.15225,20.769555 12.09056,25.308675 1.93831,4.53913 5.28326,12.82874 7.43324,18.42135 2.14997,5.59262 5.91127,16.61762 8.35837,24.5 2.4471,7.88239 6.0322,21.75661 7.9669,30.83161 1.9347,9.075 4.2101,22.125 5.0565,29 0.8465,6.875 2.0268,20.7125 2.623,30.75 0.7861,13.23611 0.7789,23.26389 -0.026,36.5 -0.6108,10.0375 -1.7746,23.425 -2.5864,29.75 -0.8118,6.325 -2.8389,18.18917 -4.5047,26.36483 -1.6658,8.17565 -4.6154,20.32565 -6.5545,27 -1.9392,6.67434 -5.5637,17.76017 -8.0545,24.63517 -2.49082,6.875 -7.1739,18.68576 -10.40688,26.24614 -3.23297,7.56038 -9.76354,21.51038 -14.51236,31 -4.74882,9.48962 -12.03861,22.87886 -16.19954,29.75386 -4.16092,6.875 -9.7596,15.875 -12.44151,20 -2.6819,4.125 -8.33299,12.10472 -12.55795,17.73271 l -7.68176,10.23271 -17.25,0.0173 z M 112.5,358.47722 c -9.9,0.21557 -21.729662,-2.8e-4 -26.288139,-0.47966 -4.558476,-0.47938 -10.858476,-1.37706 -14,-1.99484 -3.141523,-0.61778 -8.5805,-2.02021 -12.086614,-3.1165 -3.506114,-1.09629 -8.456114,-2.94309 -11,-4.104 -2.543886,-1.1609 -7.611789,-4.0625 -11.262007,-6.44799 -3.650218,-2.38549 -9.348812,-7.23645 -12.663543,-10.77991 -3.31473,-3.54345 -7.460634,-8.52668 -9.21312,-11.07383 -1.752486,-2.54715 -4.681351,-7.86694 -6.5085898,-11.82176 C 7.6507486,304.70391 5.3370155,297.65032 4.3363583,292.98407 2.9934902,286.72204 2.5169814,280.17852 2.5169814,268 c 0,-12.17483 0.4770277,-18.72812 1.819802,-25 1.0008911,-4.675 3.1655452,-11.73603 4.8103425,-15.69119 1.6447971,-3.95515 5.1642291,-10.25515 7.8209601,-14 2.65673,-3.74484 7.238255,-9.11907 10.181166,-11.94272 2.942912,-2.82365 7.567767,-6.79554 10.277456,-8.82642 2.70969,-2.03088 8.078267,-5.2796 11.930171,-7.21939 3.851905,-1.93979 11.084886,-4.55978 16.073292,-5.82221 C 70.418577,178.23565 78.55,176.7084 83.5,176.10419 c 4.95,-0.6042 14.305236,-1.09982 20.78941,-1.10137 6.48418,-0.002 16.11756,0.4798 21.4075,1.06966 5.28995,0.58986 13.91111,2.16149 19.15814,3.49251 5.24702,1.33102 13.30372,4.28447 17.90377,6.56323 5.85964,2.90272 10.71219,6.35245 16.20763,11.52216 4.31414,4.05844 9.28348,9.62237 11.04297,12.3643 1.75949,2.74193 3.48966,4.96372 3.84483,4.93733 0.35516,-0.0264 2.44575,-2.57424 4.64575,-5.66187 2.2,-3.08764 7.28787,-8.4291 11.30637,-11.86991 4.01851,-3.44081 10.78689,-8.06678 15.04086,-10.27994 4.25396,-2.21315 11.20519,-5.15687 15.44718,-6.5416 4.24198,-1.38472 12.38135,-3.2109 18.08748,-4.05818 C 264.08802,175.69323 273.77916,175 279.91775,175 c 6.13859,0 15.48922,0.48262 20.77916,1.07248 5.28995,0.58986 13.89919,2.15847 19.13165,3.48579 5.23246,1.32733 12.42614,3.77628 15.98596,5.44212 3.55982,1.66584 9.27786,5.03073 12.70675,7.47754 3.42889,2.4468 8.98933,7.45532 12.35654,11.13003 L 367,210.28925 V 194.64462 179 h 31.5 31.5 v 13.5 c 0,7.425 0.36665,13.5 0.81479,13.5 0.44813,0 1.61699,-1.6875 2.59747,-3.75 0.98047,-2.0625 3.75405,-6.51695 6.16351,-9.89878 2.40945,-3.38183 6.20375,-7.59257 8.43176,-9.35718 2.22801,-1.76462 6.40028,-4.10955 9.2717,-5.21096 2.87142,-1.10141 8.83367,-2.2354 13.24943,-2.51997 6.1967,-0.39935 9.94803,-0.032 16.44039,1.60974 7.09785,1.7949 11.34104,2.12715 27.16577,2.12715 h 18.75404 l 3.47378,11.25 c 1.91058,6.1875 9.44571,30.825 16.74475,54.75 7.29903,23.925 13.41083,43.6875 13.58179,43.91667 0.17095,0.22916 0.54311,0.18437 0.82703,-0.0996 0.28391,-0.28391 3.62528,-10.37141 7.42526,-22.41666 3.79998,-12.04525 11.55518,-36.63634 17.23379,-54.64687 L 602.5,179.00719 657.25,179.00359 712,179 v 10.5 c 0,5.775 0.1296,10.5 0.288,10.5 0.15839,0 2.67429,-2.24037 5.59087,-4.9786 2.91658,-2.73823 7.67128,-6.33367 10.56601,-7.98986 2.89472,-1.6562 8.1977,-4.11583 11.78439,-5.46586 3.58668,-1.35002 10.51488,-3.18549 15.39599,-4.0788 4.88111,-0.89332 16.99152,-1.87951 26.91203,-2.19152 11.31873,-0.35599 22.47496,-0.10978 29.95111,0.66102 6.5526,0.67557 15.15518,2.05731 19.11683,3.07053 3.96165,1.01322 9.60865,3.04692 12.54888,4.51934 2.94024,1.47242 7.71552,4.48708 10.61172,6.69926 2.89621,2.21218 7.34854,6.77442 9.89406,10.13832 2.54551,3.36389 6.19641,9.39565 8.1131,13.4039 1.91669,4.00825 3.28525,7.48737 3.04124,7.73138 -0.24401,0.24401 -12.33954,1.57362 -26.87894,2.95469 -14.53941,1.38107 -28.51599,2.77386 -31.05906,3.09509 l -4.62377,0.58406 -2.2286,-4.60366 c -1.22573,-2.53202 -3.67593,-5.7076 -5.4449,-7.05686 -1.76896,-1.34926 -5.2104,-3.19735 -7.64763,-4.10687 -2.7485,-1.02568 -7.65927,-1.68346 -12.93133,-1.73209 -6.8929,-0.0636 -9.38242,0.34919 -13.16717,2.18317 -2.56694,1.24386 -5.4408,3.4423 -6.38636,4.8854 -0.94556,1.44311 -1.7192,4.33134 -1.7192,6.4183 0,2.08697 0.70267,4.86688 1.56148,6.17759 0.85881,1.31071 3.21032,3.16554 5.22558,4.12184 2.01525,0.95631 8.46145,2.58185 14.32489,3.61232 5.86343,1.03047 17.30575,2.80684 25.42739,3.94749 8.12163,1.14064 19.14663,3.18279 24.5,4.53809 5.35336,1.35531 13.33339,4.19608 17.73339,6.31281 4.4,2.11674 10.43844,6.0513 13.41876,8.74347 2.98032,2.69217 6.89234,7.19842 8.69337,10.01388 1.80103,2.81547 4.24851,7.99299 5.43883,11.5056 1.56126,4.60723 2.15754,8.75473 2.14019,14.88657 -0.0164,5.78617 -0.68594,10.57528 -2.09718,15 -1.14024,3.575 -3.38491,8.75 -4.98816,11.5 -1.60326,2.75 -4.5957,6.94485 -6.64988,9.3219 -2.05417,2.37704 -6.87533,6.52736 -10.71367,9.22292 -3.83835,2.69557 -10.62581,6.30747 -15.08325,8.02644 -4.45745,1.71897 -12.39172,3.97635 -17.63173,5.01641 -5.61701,1.11488 -16.50457,2.15381 -26.52728,2.53133 -10.33232,0.38918 -21.85846,0.18956 -29.38719,-0.50896 -6.81295,-0.63211 -15.79723,-1.85366 -19.96507,-2.71455 -4.16784,-0.86089 -9.6186,-2.25108 -12.11281,-3.08931 -2.49421,-0.83822 -6.9416,-2.69467 -9.88308,-4.12543 -2.94148,-1.43077 -7.28553,-4.30675 -9.65345,-6.39107 C 715.13049,339.70536 712.92465,338 712.59655,338 712.26845,338 712,341.825 712,346.5 V 355 H 678.5 645 v -57.2 c 0,-31.46 -0.37439,-56.7725 -0.83198,-56.25 -0.45759,0.5225 -1.75501,3.2 -2.88316,5.95 -1.12814,2.75 -10.93617,25.925 -21.79561,51.5 -10.85945,25.575 -20.64702,48.6375 -21.75017,51.25 l -2.00573,4.75 h -29.75969 c -22.87077,0 -29.87701,-0.28936 -30.26652,-1.25 -0.27876,-0.6875 -8.00433,-19.25 -17.16793,-41.25 -9.1636,-22 -20.29327,-48.775 -24.73261,-59.5 -4.43933,-10.725 -8.46283,-19.99722 -8.94111,-20.60494 -0.47828,-0.60771 -4.31011,-2.12631 -8.5152,-3.37466 -5.61625,-1.66728 -9.06783,-2.12294 -13.0039,-1.7167 -2.94707,0.30416 -7.24711,1.59776 -9.55565,2.87466 -2.30854,1.2769 -5.64309,4.2196 -7.41011,6.53933 -1.76701,2.31973 -4.15362,6.73238 -5.30357,9.80589 -1.14995,3.07351 -2.82007,9.27555 -3.71139,13.78231 -1.28943,6.51978 -1.71356,17.03154 -2.07568,51.44411 L 434.83487,355 H 400.91744 367 v -13.0839 -13.08391 l -6.25,5.68463 c -3.4375,3.12654 -8.1717,7.01724 -10.52044,8.646 -2.34875,1.62877 -7.10927,4.28984 -10.57894,5.91349 -3.46967,1.62366 -10.6478,4.05286 -15.95138,5.39822 -5.30359,1.34537 -15.61807,2.97688 -22.92106,3.62559 -7.67611,0.68185 -19.4473,0.92851 -27.9004,0.58465 -8.56857,-0.34856 -18.90842,-1.46829 -24.97528,-2.70464 -5.69418,-1.1604 -13.59056,-3.45759 -17.54751,-5.10487 -3.95694,-1.64728 -9.81807,-4.81288 -13.02472,-7.03466 -3.20665,-2.22179 -7.56683,-5.68233 -9.68929,-7.6901 -2.12246,-2.00778 -6.02131,-6.47905 -8.66411,-9.93617 l -4.80508,-6.28567 -4.54417,5.90548 c -2.49928,3.24802 -6.91737,8.03921 -9.81797,10.64709 -2.9006,2.60789 -8.65688,6.72428 -12.79173,9.14754 -4.13486,2.42326 -9.99292,5.3456 -13.01792,6.49408 -3.025,1.14848 -9.55,2.95987 -14.5,4.0253 -6.3852,1.37433 -14.22961,2.05101 -27,2.32907 z m 681.59107,-36.54471 c 4.17509,0.0371 9.70788,-0.56958 12.29509,-1.34821 2.58721,-0.77864 6.2592,-2.6019 8.15998,-4.05169 1.90078,-1.4498 4.13049,-3.94039 4.95491,-5.53464 0.82442,-1.59426 1.49727,-4.1585 1.49521,-5.69831 -0.002,-1.53981 -0.91406,-4.29277 -2.02667,-6.11769 -1.2042,-1.97513 -3.73224,-4.06132 -6.24626,-5.15454 C 810.4005,293.01734 804,291.24261 798.5,290.08358 c -5.5,-1.15904 -19,-3.87828 -30,-6.04277 -11,-2.16448 -23.58729,-5.11217 -27.97174,-6.55042 -4.38446,-1.43824 -10.50997,-4.15688 -13.61225,-6.04141 -3.10227,-1.88453 -7.51175,-5.4565 -9.79885,-7.9377 C 714.83007,261.03008 712.74308,259 712.4794,259 712.21573,259 712,269.3655 712,282.03444 v 23.03445 l 4.75,-0.58351 c 2.6125,-0.32093 13.75,-1.42473 24.75,-2.4529 15.13035,-1.41424 20.1898,-1.5849 20.77954,-0.70094 0.42874,0.64265 2.22874,3.60657 4,6.58649 1.77125,2.97992 4.89153,6.75781 6.93394,8.39532 2.04241,1.6375 5.86741,3.55652 8.5,4.26447 2.63259,0.70796 8.2025,1.31756 12.37759,1.35469 z M 282,319.87307 c 0.825,0.0507 4.4987,-0.54336 8.16377,-1.32016 3.66508,-0.77681 8.13897,-2.17522 9.94199,-3.1076 1.80302,-0.93238 5.67136,-3.95856 8.5963,-6.72486 l 5.31809,-5.02962 23.73992,2.15916 c 13.05696,1.18754 24.97743,2.1571 26.48993,2.15459 L 367,308 v -12 -12 h -59.56739 c -56.24706,0 -59.54063,0.0976 -59.08732,1.75 0.26404,0.9625 0.7756,3.49529 1.1368,5.62843 0.3612,2.13313 1.68283,6.18313 2.93697,9 1.25413,2.81686 4.19005,7.07802 6.52426,9.46923 2.33421,2.39122 6.23573,5.2287 8.67005,6.30551 2.43432,1.07682 6.32967,2.33356 8.65633,2.79277 2.32667,0.45921 4.9053,0.87642 5.7303,0.92713 z m -173.77508,-6.42698 c 3.6987,-0.25046 9.22862,-1.39215 12.28871,-2.53707 3.6283,-1.35752 7.27083,-3.78872 10.47084,-6.98873 2.69887,-2.69887 6.26238,-7.74689 7.9189,-11.21781 2.88407,-6.04303 3.15154,-6.29656 6.30424,-5.97568 1.81081,0.18431 10.71739,1.17799 19.79239,2.2082 9.075,1.0302 16.65108,1.72769 16.83574,1.54998 0.18465,-0.17772 -0.21692,-3.74903 -0.8924,-7.93624 -0.78494,-4.86587 -1.01409,-12.20246 -0.635,-20.33093 0.32622,-6.9948 1.23122,-15.30531 2.01111,-18.46781 1.32198,-5.36069 1.29871,-5.75 -0.34373,-5.75 -0.96895,0 -10.02237,1.1233 -20.11872,2.49622 -10.09635,1.37292 -19.52327,2.49792 -20.94871,2.5 -2.14232,0.003 -2.79202,-0.66478 -3.74691,-3.85192 -0.63536,-2.12063 -2.93963,-5.88292 -5.12061,-8.36064 -2.31533,-2.63036 -6.16572,-5.49769 -9.25309,-6.89065 -4.49031,-2.02593 -6.87107,-2.38624 -15.78768,-2.38935 -8.621612,-0.003 -11.326921,0.3787 -15.122405,2.13367 -2.542323,1.17553 -6.543615,3.87302 -8.89176,5.99443 -2.348145,2.12141 -5.313849,5.51169 -6.590453,7.53397 -1.276604,2.02227 -3.320709,6.52477 -4.542455,10.00556 -1.885093,5.37069 -2.231315,8.52368 -2.287142,20.82871 -0.05285,11.64828 0.301241,15.58169 1.800414,20 1.02641,3.025 3.20996,7.63616 4.852334,10.24702 1.642374,2.61086 4.627584,6.0367 6.633801,7.61299 2.006216,1.57628 5.144546,3.63195 6.974066,4.56816 1.82952,0.93622 5.20452,2.10071 7.5,2.58776 2.29548,0.48706 7.19981,0.68063 10.89852,0.43016 z M 282.2955,252 h 32.96216 l -0.64756,-4.88158 c -0.35616,-2.68488 -1.29838,-7.07238 -2.09382,-9.75 -0.79544,-2.67763 -2.80594,-7.01198 -4.46779,-9.6319 -1.71261,-2.69995 -5.0784,-6.0679 -7.76964,-7.77463 -2.61145,-1.65614 -6.55502,-3.49961 -8.76347,-4.0966 -2.20846,-0.59699 -7.40584,-0.89094 -11.54973,-0.65322 -5.30052,0.30407 -8.96835,1.1484 -12.37105,2.84779 -2.66019,1.32856 -6.78305,4.58036 -9.1619,7.22622 -2.37886,2.64586 -5.21571,7.19078 -6.30412,10.09982 -1.08841,2.90903 -2.39908,7.60079 -2.9126,10.42611 -0.51352,2.82533 -0.69719,5.37344 -0.40816,5.66248 C 249.09685,251.76352 264.16631,252 282.2955,252 Z M 678.5,158 H 645 v -23 -23 h 33.5 33.5 v 23 23 z"
         style="fill:#0198d9" />
    </g>
  </g>
</svg>
