<?xml version="1.0" encoding="UTF-8" standalone="no"?>
<svg
   xmlns:dc="http://purl.org/dc/elements/1.1/"
   xmlns:cc="http://creativecommons.org/ns#"
   xmlns:rdf="http://www.w3.org/1999/02/22-rdf-syntax-ns#"
   xmlns:svg="http://www.w3.org/2000/svg"
   xmlns="http://www.w3.org/2000/svg"
   xmlns:sodipodi="http://sodipodi.sourceforge.net/DTD/sodipodi-0.dtd"
   xmlns:inkscape="http://www.inkscape.org/namespaces/inkscape"
   version="1.0"
   width="390pt"
   height="370pt"
   viewBox="0 0 390 370"
   preserveAspectRatio="xMidYMid meet"
   id="svg26"
   sodipodi:docname="cervis_c.svg"
   inkscape:version="1.0 (4035a4fb49, 2020-05-01)">
  <metadata
     id="metadata32">
    <rdf:RDF>
      <cc:Work
         rdf:about="">
        <dc:format>image/svg+xml</dc:format>
        <dc:type
           rdf:resource="http://purl.org/dc/dcmitype/StillImage" />
        <dc:title />
      </cc:Work>
    </rdf:RDF>
  </metadata>
  <defs
     id="defs30" />
  <sodipodi:namedview
     inkscape:snap-page="true"
     inkscape:document-rotation="0"
     pagecolor="#ffffff"
     bordercolor="#666666"
     borderopacity="1"
     objecttolerance="10"
     gridtolerance="10"
     guidetolerance="10"
     inkscape:pageopacity="0"
     inkscape:pageshadow="2"
     inkscape:window-width="1920"
     inkscape:window-height="1137"
     id="namedview28"
     showgrid="false"
     inkscape:zoom="0.91897619"
     inkscape:cx="459.1294"
     inkscape:cy="377.30233"
     inkscape:window-x="1912"
     inkscape:window-y="-6"
     inkscape:window-maximized="1"
     inkscape:current-layer="g1022"
     showguides="true" />
  <g
     transform="matrix(0.1,0,0,-0.1,0,329.5)"
     fill="#000000"
     stroke="none"
     id="g24"
     style="fill:#0198d9;fill-opacity:1">
    <path
       d="M 1415,2880 C 1043,2857 777,2772 549,2600 324,2432 163,2218 85,1985 -16,1685 -22,1216 72,912 100,818 182,662 253,566 453,297 726,130 1084,55 c 325,-67 856,-64 1131,6 394,101 685,330 859,678 53,107 115,275 105,286 -3,3 -208,27 -455,55 -247,27 -468,52 -492,55 -35,5 -43,3 -48,-12 -4,-10 -24,-55 -45,-100 -68,-144 -174,-236 -329,-289 -86,-29 -282,-27 -374,5 -89,31 -180,93 -237,164 -97,120 -138,249 -146,457 -14,352 80,596 280,724 99,64 164,80 317,80 121,0 143,-2 207,-26 40,-14 95,-42 122,-62 56,-41 122,-134 148,-207 13,-37 23,-49 38,-49 38,-1 950,123 958,130 4,3 -4,37 -18,74 -146,388 -406,645 -773,765 -229,75 -589,111 -917,91 z"
       id="path22"
       style="fill:#0198d9;fill-opacity:1" />
  </g>
  <g
     id="g1022"
     transform="matrix(0.74999998,0,0,0.70748804,-378.57923,1.1645596)"
     style="fill:#000000">
    <path
       sodipodi:nodetypes="ssssssssssssssssssssssscssssssssssssssssssssscs"
       style="fill:#0198d9;fill-opacity:1"
       d="m 910.25,521.77256 c -10.0375,0.14991 -18.25,0.0888 -18.25,-0.13569 0,-0.22454 0.5728,-1.47219 1.2729,-2.77256 0.70009,-1.30037 5.13374,-8.88931 9.85256,-16.86431 4.71881,-7.975 11.4832,-20.125 15.03197,-27 3.54876,-6.875 9.20175,-18.575 12.56218,-26 3.36044,-7.425 8.00362,-18.45 10.31819,-24.5 2.31457,-6.05 5.94434,-16.07309 8.06616,-22.27354 2.12181,-6.20045 5.85321,-18.57545 8.292,-27.5 2.43879,-8.92455 5.58952,-22.07646 7.00163,-29.22646 1.41211,-7.15 3.76455,-21.55 5.22764,-32 2.40397,-17.17008 2.66631,-22.03381 2.72385,-50.5 0.0489,-24.17812 -0.34846,-34.98661 -1.70939,-46.5 -0.97519,-8.25 -2.44758,-19.275 -3.272,-24.5 -0.82441,-5.225 -2.60535,-14.96704 -3.95765,-21.64899 -1.35229,-6.68194 -4.43417,-19.28194 -6.84862,-28 -2.41446,-8.71805 -5.99966,-20.52264 -7.96713,-26.23242 -1.96746,-5.70978 -5.6538,-15.60978 -8.19185,-22 C 937.86438,87.728365 932.1814,75.3 927.77359,66.5 923.36578,57.7 918.17482,47.575 916.23812,44 914.30141,40.425 908.05555,29.318443 902.35842,19.318762 896.66129,9.3190812 892,0.8815812 892,0.56876207 892,0.25594293 900.08542,0 909.96761,0 h 17.9676 l 3.95035,5.25 c 2.17269,2.8875 5.99724,8.175 8.499,11.75 2.50176,3.575 9.26124,13.989095 15.02106,23.142433 5.75983,9.153338 13.92834,23.000019 18.15224,30.770402 4.22391,7.770383 10.60641,20.531289 14.18334,28.357567 3.57692,7.826278 8.72459,20.079598 11.43925,27.229598 2.71465,7.15 6.71055,18.77431 8.87985,25.83181 2.1693,7.05749 5.0459,17.63249 6.3924,23.5 1.3466,5.8675 3.3355,15.84319 4.4197,22.16819 1.0843,6.325 2.569,16.45 3.2995,22.5 0.8255,6.83751 1.3281,22.16304 1.3281,40.5 0,18.3562 -0.5022,33.65532 -1.3294,40.5 -0.7311,6.05 -2.1633,15.725 -3.1826,21.5 -1.0193,5.775 -2.804,14.775 -3.966,20 -1.1619,5.225 -3.019,12.65 -4.1267,16.5 -1.1078,3.85 -3.3993,11.275 -5.0924,16.5 -1.6931,5.225 -5.66,16.025 -8.81527,24 -3.15531,7.975 -8.86781,21.26847 -12.69446,29.54103 -3.82664,8.27257 -9.95185,20.54609 -13.61156,27.27448 -3.65972,6.7284 -10.93171,19.09043 -16.15998,27.47118 -5.22827,8.38076 -13.22197,20.18224 -17.76379,26.22552 L 928.5,521.5 Z"
       id="path1026" />
    <path
       sodipodi:nodetypes="ssssssssssssssssssssssscsssssssssscsssssssssccs"
       style="fill:#0198d9;fill-opacity:1"
       d="m 910.25,521.98271 c -13.18386,0.0132 -17.23147,-0.27736 -17.1714,-1.23271 0.0432,-0.6875 1.37063,-3.275 2.94977,-5.75 1.57914,-2.475 4.98592,-8.1 7.57061,-12.5 2.58469,-4.4 6.93806,-12.05 9.67416,-17 2.7361,-4.95 8.02008,-15.3 11.74217,-23 3.72209,-7.7 9.12617,-19.625 12.00908,-26.5 2.88291,-6.875 7.68846,-19.475 10.679,-28 2.99054,-8.525 7.42439,-22.72336 9.853,-31.55191 2.4286,-8.82856 5.5436,-21.4963 6.92221,-28.15055 1.3786,-6.65425 3.38369,-18.33089 4.45575,-25.94809 1.07206,-7.6172 2.48674,-19.02445 3.14374,-25.34945 0.65701,-6.325 1.20605,-22.075 1.2201,-35 0.014,-12.925 -0.53075,-29.35 -1.21066,-36.5 -0.67991,-7.15 -2.33397,-20.47827 -3.67568,-29.61839 -1.34171,-9.14011 -3.76223,-22.64011 -5.37893,-30 -1.6167,-7.35988 -4.73152,-19.68161 -6.92181,-27.38161 -2.1903,-7.7 -5.62095,-18.725 -7.62368,-24.5 -2.00272,-5.775 -6.14902,-16.575 -9.21399,-24 C 936.20846,82.575 929.43519,68.216346 924.22172,58.09188 919.00825,47.967414 909.85058,31.134353 903.87134,20.685078 897.89211,10.235803 893,1.3069573 893,0.84319826 c 0,-0.46375904 7.7625,-0.82564824 17.25,-0.8041982 l 17.25,0.03900005 3.09225,4.21099999 C 932.29299,6.60505 938.41488,15.475 944.19644,24 c 5.78157,8.525 14.16216,21.661095 18.62354,29.191323 4.46138,7.530228 11.96646,21.366397 16.67795,30.747042 4.7115,9.380646 10.15225,20.769555 12.09056,25.308675 1.93831,4.53913 5.28326,12.82874 7.43324,18.42135 2.14997,5.59262 5.91127,16.61762 8.35837,24.5 2.4471,7.88239 6.0322,21.75661 7.9669,30.83161 1.9347,9.075 4.2101,22.125 5.0565,29 0.8465,6.875 2.0268,20.7125 2.623,30.75 0.7861,13.23611 0.7789,23.26389 -0.026,36.5 -0.6108,10.0375 -1.7746,23.425 -2.5864,29.75 -0.8118,6.325 -2.8389,18.18917 -4.5047,26.36483 -1.6658,8.17565 -4.6154,20.32565 -6.5545,27 -1.9392,6.67434 -5.5637,17.76017 -8.0545,24.63517 -2.49082,6.875 -7.1739,18.68576 -10.40688,26.24614 -3.23297,7.56038 -9.76354,21.51038 -14.51236,31 -4.74882,9.48962 -12.03861,22.87886 -16.19954,29.75386 -4.16092,6.875 -9.7596,15.875 -12.44151,20 -2.6819,4.125 -8.33299,12.10472 -12.55795,17.73271 l -7.68176,10.23271 -17.25,0.0173 z"
       id="path1024" />
  </g>
</svg>
